<svg width="122" height="25" viewBox="0 0 122 25" fill="none" xmlns="http://www.w3.org/2000/svg">
<path d="M42.2132 5.70536C42.2091 5.63293 42.1935 5.5641 42.1857 5.49227C42.1738 5.36957 42.1469 5.24627 42.1194 5.12357C42.1038 5.05473 42.0883 4.9859 42.0686 4.91407C42.0375 4.79496 42.0058 4.67166 41.967 4.55255C41.9436 4.48731 41.9197 4.41847 41.8964 4.35383C41.8492 4.22395 41.7984 4.10064 41.744 3.97794C41.7207 3.92347 41.6968 3.8696 41.6735 3.81873C41.5874 3.64515 41.4977 3.47516 41.3997 3.31236C41.3841 3.28363 41.3644 3.26148 41.3489 3.23634C41.2586 3.09508 41.169 2.96161 41.0709 2.82753C41.0321 2.77665 40.989 2.72638 40.946 2.67191C40.8701 2.57375 40.7864 2.47499 40.7027 2.37982C40.6979 2.37443 40.6925 2.36904 40.6878 2.36366C40.6483 2.32355 40.6112 2.28345 40.5748 2.24095C40.567 2.23197 40.5586 2.223 40.5497 2.21462C40.4564 2.12483 40.3626 2.03505 40.2693 1.94168C40.2185 1.89439 40.1677 1.84771 40.1127 1.80042C40.0033 1.70286 39.8856 1.60888 39.7684 1.5185C39.7254 1.48977 39.6865 1.45685 39.6435 1.42453C39.4833 1.30542 39.3147 1.19289 39.1425 1.08815C39.1031 1.0666 39.0642 1.04505 39.0254 1.02291C38.8885 0.943298 38.7474 0.867282 38.6028 0.794858C38.5364 0.762536 38.4695 0.733207 38.4031 0.700886C38.2818 0.646418 38.1604 0.592548 38.0355 0.545263C37.9572 0.512941 37.8831 0.483612 37.8048 0.458473C37.6798 0.411787 37.5543 0.371684 37.4294 0.335771C37.3511 0.310632 37.2728 0.284894 37.1909 0.263346C37.1634 0.256164 37.1401 0.248981 37.1126 0.241799L37.1084 0.24539C36.4897 0.0903657 35.8399 -1.52588e-05 35.1669 -1.52588e-05H30.1774C28.4678 -1.52588e-05 26.8986 0.54227 25.6744 1.44249C25.3259 1.69927 25.0055 1.98477 24.7156 2.29602C24.571 2.45164 24.4341 2.61445 24.3086 2.78025C23.7963 3.45301 23.4281 4.21198 23.2404 5.03259C23.1465 5.44499 23.0957 5.86756 23.0957 6.30151V15.8508C23.0957 16.2847 23.1465 16.7079 23.2404 17.1197C23.4281 17.9403 23.7957 18.6999 24.3086 19.372C24.4335 19.5384 24.571 19.7012 24.7156 19.8563C25.0049 20.1675 25.3259 20.453 25.6744 20.7098C26.8986 21.61 28.4678 22.1523 30.1774 22.1523H33.0448C33.3706 22.1523 33.5672 21.792 33.3921 21.5172L32.3149 19.8311C32.1392 19.5564 31.814 19.3864 31.4697 19.3864H30.1774C29.5593 19.3864 29.0153 19.2128 28.5616 18.9201C28.5108 18.8878 28.4636 18.8549 28.417 18.8226C28.2878 18.7286 28.1665 18.6274 28.0571 18.5155C27.9788 18.4395 27.9083 18.3599 27.8383 18.2767C27.7014 18.1103 27.5801 17.9331 27.4743 17.7416C27.4193 17.6476 27.3727 17.55 27.3254 17.4489C27.2394 17.2502 27.1652 17.0437 27.1103 16.8306C27.0828 16.7222 27.0594 16.6175 27.0397 16.5086C27.0044 16.2919 26.9847 16.071 26.9847 15.8508V6.30211C26.9847 6.08184 27.0044 5.86098 27.0397 5.6443C27.0594 5.53597 27.0828 5.43122 27.1103 5.32228C27.1652 5.1092 27.2394 4.9027 27.3254 4.70398C27.3721 4.60283 27.4193 4.50526 27.4743 4.41129C27.5801 4.21976 27.7014 4.04259 27.8383 3.87619C27.9089 3.79299 27.9794 3.71338 28.0571 3.63737C28.2095 3.48534 28.3781 3.34827 28.5616 3.23215C29.0153 2.93946 29.5593 2.76588 30.1774 2.76588H35.1669C35.2762 2.76588 35.382 2.77306 35.4878 2.78384C35.5817 2.79461 35.672 2.80898 35.7616 2.82693C35.7814 2.83052 35.8047 2.83411 35.8244 2.83771C35.9027 2.85566 35.981 2.87721 36.0551 2.89936C36.076 2.90774 36.1 2.91372 36.1221 2.91971C36.1352 2.9233 36.1478 2.92689 36.1609 2.93168C36.2243 2.95442 36.2841 2.97777 36.3415 3.0041C36.3767 3.01847 36.412 3.03283 36.4431 3.0472C36.5016 3.07593 36.5602 3.10526 36.6194 3.13758C36.6547 3.15913 36.6899 3.17708 36.7252 3.19923C36.7802 3.23155 36.8268 3.26447 36.8776 3.30038C36.9165 3.32552 36.9518 3.35126 36.987 3.37999C37.0337 3.41231 37.0773 3.44882 37.1203 3.48474C37.1592 3.51706 37.1945 3.55357 37.2297 3.58589C37.2692 3.62181 37.308 3.65832 37.3433 3.69782C37.3786 3.73373 37.4108 3.76665 37.4431 3.80257C37.4497 3.80975 37.4563 3.81753 37.4622 3.82531C37.4903 3.86123 37.5184 3.89714 37.5471 3.93305C37.5824 3.97615 37.6177 4.01984 37.6488 4.06713C37.6762 4.10663 37.7073 4.14673 37.7306 4.18624C37.7659 4.23352 37.7934 4.2838 37.8245 4.33468C37.8478 4.37418 37.8717 4.41428 37.895 4.45738C37.9225 4.50826 37.95 4.56213 37.9769 4.62019C37.9966 4.65969 38.0158 4.69979 38.0319 4.74289C38.0594 4.79736 38.0827 4.85841 38.1024 4.91647C38.118 4.95597 38.1335 4.99607 38.1497 5.03917C38.1694 5.10082 38.1885 5.16187 38.2047 5.22352C38.2166 5.26662 38.2322 5.30672 38.2399 5.34623C38.2597 5.41147 38.271 5.47611 38.283 5.54135C38.2907 5.58086 38.3027 5.62096 38.3063 5.66046C38.3182 5.73289 38.326 5.80531 38.3338 5.87714C38.338 5.90946 38.3457 5.94597 38.3457 5.97829C38.3577 6.08663 38.3613 6.19138 38.3613 6.30031V15.8496C38.3613 15.9579 38.3571 16.0626 38.3457 16.1716C38.3457 16.2039 38.338 16.2404 38.3338 16.2727C38.326 16.3452 38.3182 16.4176 38.3063 16.4894C38.3021 16.5289 38.2907 16.569 38.283 16.6085C38.271 16.6738 38.2597 16.7384 38.2399 16.8037C38.2322 16.8432 38.2166 16.8833 38.2047 16.9264C38.1891 16.988 38.1694 17.0491 38.1497 17.1107C38.1341 17.1544 38.1186 17.1939 38.1024 17.2334C38.0827 17.2915 38.0594 17.3525 38.0319 17.407C38.0164 17.4501 37.9966 17.4902 37.9769 17.5297C37.9494 17.5878 37.9219 17.6416 37.895 17.6925C37.8717 17.7356 37.8478 17.7757 37.8245 17.8152C37.7934 17.8661 37.7659 17.9164 37.7306 17.9636C37.7073 18.0031 37.6756 18.0432 37.6488 18.0828C37.6177 18.13 37.5824 18.1731 37.5471 18.2168C37.519 18.2527 37.4909 18.2887 37.4622 18.3246C37.4563 18.3323 37.4497 18.3401 37.4431 18.3473C37.4114 18.3826 37.3792 18.4161 37.3433 18.4521C37.308 18.4916 37.2692 18.5281 37.2297 18.564C37.1945 18.5963 37.1592 18.6328 37.1203 18.6651C37.0773 18.7011 37.0343 18.7376 36.987 18.7699C36.9518 18.7986 36.9165 18.8244 36.8776 18.8495C36.8268 18.8854 36.7796 18.9183 36.7252 18.9506C36.6899 18.9722 36.6547 18.9902 36.6194 19.0123C36.6075 19.0195 36.5919 19.0267 36.5806 19.0338C36.5333 19.059 36.4903 19.0811 36.4437 19.1027C36.4126 19.117 36.3773 19.1314 36.342 19.1458C36.2853 19.1721 36.2249 19.1955 36.1615 19.2182C36.149 19.223 36.1358 19.2266 36.1233 19.2302C36.1012 19.2362 36.0778 19.2421 36.0563 19.2505C35.9822 19.2721 35.9039 19.2936 35.8256 19.3122C35.8059 19.3158 35.7825 19.3194 35.7628 19.3229C35.6726 19.3409 35.5829 19.3553 35.489 19.366C35.3832 19.3768 35.4083 19.7635 35.299 19.7635L34.9493 19.9879C34.819 20.0717 34.746 20.2214 34.7616 20.3758L34.8907 21.6854C34.8985 21.762 34.9272 21.8351 34.9738 21.8961L35.0413 21.9847C35.122 22.09 35.2481 22.1511 35.3809 22.1463C35.4305 22.1445 35.4795 22.1421 35.5279 22.1391C36.0719 22.114 36.5997 22.0308 37.1084 21.9039L37.1126 21.9075C37.1401 21.9003 37.1634 21.8895 37.1909 21.8859C37.2728 21.8644 37.3511 21.8386 37.4294 21.8135C37.5543 21.7776 37.6798 21.7375 37.8048 21.6908C37.8831 21.6657 37.9572 21.6363 38.0355 21.604C38.0863 21.5861 38.1371 21.5645 38.1843 21.5424C38.2585 21.5136 38.3332 21.4807 38.4031 21.4484C38.4695 21.4161 38.5364 21.3867 38.6028 21.3544C38.7361 21.2892 38.8652 21.2168 38.9901 21.1449C39.0021 21.1413 39.0134 21.1342 39.0254 21.127C39.0642 21.1054 39.1037 21.0839 39.1425 21.0617C39.3147 20.957 39.4827 20.8451 39.6435 20.7253C39.6865 20.693 39.726 20.6601 39.7684 20.6314C39.8856 20.541 40.0033 20.447 40.1127 20.3495C40.1677 20.3022 40.2185 20.2555 40.2693 20.2082C40.3626 20.1148 40.4564 20.025 40.5497 19.9353C40.5586 19.9269 40.5664 19.9179 40.5748 19.9089C40.6112 19.8664 40.6483 19.8263 40.6878 19.7862C40.6931 19.7808 40.6979 19.7754 40.7027 19.7701C40.7864 19.6749 40.8695 19.5767 40.946 19.478C40.989 19.4235 41.0321 19.3732 41.0709 19.3223C41.169 19.1883 41.2586 19.0548 41.3489 18.9135C41.3644 18.8884 41.3841 18.8663 41.3997 18.8375C41.4977 18.6747 41.5874 18.5047 41.6735 18.3312C41.6968 18.2803 41.7201 18.2264 41.744 18.1719C41.799 18.0492 41.8498 17.9259 41.8964 17.796C41.9197 17.7308 41.9436 17.662 41.967 17.5973C42.0058 17.4782 42.0375 17.3549 42.0686 17.2358C42.0883 17.1634 42.1038 17.0945 42.1194 17.0263C42.1469 16.9036 42.1744 16.7803 42.1857 16.6576C42.1935 16.5852 42.2091 16.5163 42.2132 16.4445C42.2366 16.2458 42.2485 16.0507 42.2485 15.8478V6.30211C42.2485 6.0998 42.2366 5.90467 42.2132 5.70536Z" fill="url(#paint0_linear)"/>
<path d="M17.9253 21.2795L4.52413 0.181864C4.4518 0.0693367 4.32029 0.00050354 4.17743 0.00050354H0.403173C0.0917409 0.00050354 -0.101932 0.311749 0.0564738 0.557753L12.0756 19.3414C12.0756 19.3414 12.5718 20.4164 13.6549 21.152C14.8175 21.9409 16.8756 21.9433 17.9253 21.2795Z" fill="url(#paint1_linear)"/>
<path d="M20.1198 1.8082C20.1198 0.809822 19.2381 -1.52588e-05 18.1501 -1.52588e-05C17.0622 -1.52588e-05 16.1805 0.809822 16.1805 1.8082C16.1805 1.8513 16.1829 1.89379 16.1859 1.93629C16.1829 1.95544 16.1805 1.9746 16.1805 1.99435V19.9568C16.1805 19.9568 16.2086 20.7954 15.6641 21.7531L16.1805 21.7602C18.2129 21.6603 20.1198 20.0412 20.1198 18.0438V1.99495C20.1198 1.9752 20.1174 1.95544 20.1144 1.93689C20.118 1.89379 20.1198 1.8513 20.1198 1.8082Z" fill="url(#paint2_linear)"/>
<path d="M39.4253 21.5729C39.3225 21.4227 38.9262 20.8522 38.0864 19.4929C37.754 18.9548 37.8664 17.738 37.8945 17.6955C37.2531 18.895 35.4634 17.9056 34.6074 19.2715C34.244 19.8509 34.2786 20.6445 34.4657 21.1952C34.5632 21.4825 34.9278 22.2002 35.1173 22.4761C35.354 22.8209 35.2787 22.7281 35.9494 23.7187C35.9804 23.7726 36.0133 23.8252 36.0486 23.8779C36.0815 23.9264 36.1161 23.9725 36.152 24.018C36.1538 24.0204 36.1556 24.0228 36.1568 24.0252C36.1765 24.0539 36.198 24.0796 36.2213 24.1024C36.9602 24.9667 38.1635 25.2061 39.0254 24.6177C39.9573 23.9815 40.1367 22.6186 39.4253 21.5729Z" fill="url(#paint3_linear)"/>
<path d="M59.6273 8.99271C59.607 8.88497 59.4689 8.75629 58.9237 8.75629C58.3612 8.75629 58.216 8.88677 58.1783 8.96697L55.483 15.0871L52.7752 8.96458C52.7387 8.88677 52.5917 8.75688 52.0184 8.75688C51.5253 8.75688 51.2754 8.84367 51.2754 9.01426V9.04L54.7651 16.5279C54.7854 16.5697 54.9169 16.7774 55.4836 16.7774C56.0383 16.7774 56.1692 16.5697 56.1908 16.5249L59.6183 9.06334L59.6339 9.02982L59.6273 8.99271Z" fill="#38343B"/>
<path d="M60.9111 10.923C60.3073 10.923 60.2422 11.1182 60.2422 11.2026V16.4758C60.2422 16.5596 60.3073 16.7553 60.9111 16.7553C61.5256 16.7553 61.5919 16.5602 61.5919 16.4758V11.2026C61.5919 11.1182 61.5256 10.923 60.9111 10.923Z" fill="#38343B"/>
<path d="M65.6805 13.3424C64.6685 13.1951 64.0958 13.0838 64.0958 12.5152C64.0958 12.2075 64.2184 11.7987 65.2764 11.7987C66.1832 11.7987 66.6297 12.1052 66.6423 12.736L66.6429 12.7767L66.6692 12.8091C66.702 12.8492 66.8455 12.9803 67.3106 12.9803C67.7912 12.9803 67.9149 12.8534 67.946 12.7779L67.9555 12.754L67.9544 12.7289C67.9017 11.5503 66.9286 10.9009 65.2142 10.9009C63.204 10.9009 62.7819 11.8143 62.7819 12.5804C62.7819 13.8733 64.0313 14.069 65.2429 14.2588C66.1939 14.3856 66.7774 14.4934 66.7774 15.0746C66.7774 15.7743 65.9447 15.8784 65.4485 15.8784C64.5214 15.8784 63.9834 15.5367 63.9721 14.9411L63.9715 14.9046L63.95 14.8741C63.9201 14.8322 63.785 14.6969 63.3038 14.6969C62.8238 14.6969 62.7024 14.8316 62.6725 14.8896L62.6582 14.9184L62.66 14.9495C62.7246 16.0933 63.7766 16.7763 65.4742 16.7763C67.1211 16.7763 68.1038 16.128 68.1038 15.0417C68.1032 13.6961 66.5861 13.4747 65.6805 13.3424Z" fill="#38343B"/>
<path d="M69.8759 10.923C69.2722 10.923 69.207 11.1182 69.207 11.2026V16.4758C69.207 16.5596 69.2722 16.7553 69.8759 16.7553C70.491 16.7553 70.5574 16.5602 70.5574 16.4758V11.2026C70.5574 11.1182 70.491 10.923 69.8759 10.923Z" fill="#38343B"/>
<path d="M75.3695 15.7036H74.7526C74.199 15.7036 74.1769 15.3152 74.1757 15.2721V11.9735H75.3318C75.3635 11.9735 75.6432 11.9597 75.6432 11.4755C75.6432 10.9913 75.3641 10.9775 75.3318 10.9775H74.1757V9.72533C74.1757 9.4901 73.6724 9.4901 73.5068 9.4901C73.3413 9.4901 72.838 9.4901 72.838 9.72533V10.9775H71.8427C71.811 10.9775 71.5312 10.9913 71.5312 11.4755C71.5312 11.9597 71.811 11.9735 71.8427 11.9735H72.838V15.3918C72.838 15.405 72.8601 16.6996 74.7526 16.6996H75.3695C75.4334 16.6996 75.6432 16.6637 75.6432 16.2016C75.6432 15.7401 75.4334 15.7036 75.3695 15.7036Z" fill="#38343B"/>
<path d="M79.1677 10.9009C77.4013 10.9009 76.1191 12.0166 76.1191 13.5543V14.1229C76.1191 15.6851 77.3726 16.7763 79.1677 16.7763C80.97 16.7763 82.2288 15.6851 82.2288 14.1229V13.5543C82.2288 12.0172 80.9413 10.9009 79.1677 10.9009ZM77.4689 13.4447C77.4689 12.5182 78.1354 11.919 79.1677 11.919C80.2072 11.919 80.8785 12.5182 80.8785 13.4447V14.2324C80.8785 15.1733 80.2228 15.7581 79.1677 15.7581C78.136 15.7581 77.4689 15.159 77.4689 14.2324V13.4447Z" fill="#38343B"/>
<path d="M87.0964 11.0404L87.0779 11.035C87.06 11.0314 86.6188 10.9446 85.5309 10.9446C83.2242 10.9446 83.1973 12.4446 83.1973 12.4601V16.4752C83.1973 16.559 83.2624 16.7547 83.8662 16.7547C84.4813 16.7547 84.5476 16.5596 84.5476 16.4752V12.4601C84.5476 12.4547 84.5613 11.9406 85.7282 11.9406C86.6218 11.9406 87.0152 12.0136 87.0187 12.0142L87.0474 12.0172C87.0779 12.0172 87.3463 12.004 87.3463 11.5413C87.3463 11.1457 87.1383 11.0547 87.0964 11.0404Z" fill="#38343B"/>
<path d="M93.7717 16.5081C93.4142 16.5955 93.0197 16.6506 92.6126 16.6506C90.5282 16.6506 89.0117 15.3158 89.0117 13.2257V12.2626C89.0117 10.1725 90.5659 8.83772 92.6126 8.83772C94.6725 8.83772 96.2135 10.1725 96.2135 12.2626V13.2257C96.2135 14.5497 95.5966 15.578 94.6223 16.1472L95.6827 17.7669C95.6827 17.7669 95.7443 17.898 95.3498 18.117C95.0909 18.2595 94.8566 18.1936 94.8566 18.1936L93.7717 16.5081ZM90.1337 13.3568C90.1337 14.8998 91.1696 15.7749 92.6126 15.7749C94.0682 15.7749 95.1041 14.8998 95.1041 13.3568V12.1315C95.1041 10.5885 94.0311 9.70263 92.6126 9.70263C91.2067 9.70263 90.1337 10.5891 90.1337 12.1315V13.3568Z" fill="#EA3E2D"/>
<path d="M97.1256 11.2014C97.1256 11.2014 97.1256 11.0482 97.6558 11.0482C98.186 11.0482 98.186 11.2014 98.186 11.2014V14.6042C98.186 14.6042 98.186 15.8845 99.678 15.8845H101.491V11.2014C101.491 11.2014 101.491 11.0482 102.021 11.0482C102.551 11.0482 102.551 11.2014 102.551 11.2014V16.3986C102.551 16.3986 102.317 16.6285 99.678 16.6285C97.125 16.6285 97.125 14.6042 97.125 14.6042V11.2014H97.1256Z" fill="#EA3E2D"/>
<path d="M108.176 14.9214C108.176 14.9214 108.176 14.8011 108.644 14.8011C109.138 14.8011 109.126 14.9214 109.126 14.9214C109.089 15.8515 107.93 16.65 106.437 16.65C104.661 16.65 103.465 15.6325 103.465 14.1223V13.5531C103.465 12.043 104.661 11.0254 106.326 11.0254C107.93 11.0254 109.138 12.0759 109.138 13.5531V13.9577C109.138 13.9577 109.138 14.1002 108.694 14.1002H104.538V14.2971C104.538 15.3476 105.315 15.9383 106.437 15.9383C107.461 15.9389 108.176 15.4248 108.176 14.9214ZM106.375 11.7706C105.339 11.7706 104.538 12.3835 104.538 13.434V13.4777H108.188C108.151 12.3937 107.337 11.7706 106.375 11.7706Z" fill="#EA3E2D"/>
<path d="M109.989 11.2014C109.989 11.2014 109.989 11.0482 110.519 11.0482C111.049 11.0482 111.049 11.2014 111.049 11.2014V14.6042C111.049 14.6042 111.049 15.8845 112.541 15.8845H114.354V11.2014C114.354 11.2014 114.354 11.0482 114.885 11.0482C115.415 11.0482 115.415 11.2014 115.415 11.2014V16.3986C115.415 16.3986 115.18 16.6285 112.541 16.6285C109.988 16.6285 109.988 14.6042 109.988 14.6042V11.2014H109.989Z" fill="#EA3E2D"/>
<path d="M121.038 14.9214C121.038 14.9214 121.038 14.8011 121.506 14.8011C122 14.8011 121.987 14.9214 121.987 14.9214C121.95 15.8515 120.791 16.65 119.298 16.65C117.522 16.65 116.326 15.6325 116.326 14.1223V13.5531C116.326 12.043 117.522 11.0254 119.188 11.0254C120.791 11.0254 122 12.0759 122 13.5531V13.9577C122 13.9577 122 14.1002 121.555 14.1002H117.399V14.2971C117.399 15.3476 118.176 15.9383 119.298 15.9383C120.322 15.9389 121.038 15.4248 121.038 14.9214ZM119.237 11.7706C118.201 11.7706 117.4 12.3835 117.4 13.434V13.4777H121.05C121.013 12.3937 120.199 11.7706 119.237 11.7706Z" fill="#EA3E2D"/>
<defs>
<linearGradient id="paint0_linear" x1="26.2545" y1="1.05333" x2="39.1139" y2="21.0858" gradientUnits="userSpaceOnUse">
<stop stop-color="#FC563A"/>
<stop offset="0.8062" stop-color="#D43400"/>
</linearGradient>
<linearGradient id="paint1_linear" x1="1.52338" y1="-0.800529" x2="16.3473" y2="22.2923" gradientUnits="userSpaceOnUse">
<stop stop-color="#353238"/>
<stop offset="0.5755" stop-color="#333036"/>
<stop offset="0.8304" stop-color="#2C292F"/>
<stop offset="0.8634" stop-color="#2A282D"/>
</linearGradient>
<linearGradient id="paint2_linear" x1="12.5528" y1="3.19489" x2="22.3609" y2="18.4741" gradientUnits="userSpaceOnUse">
<stop stop-color="#59555C"/>
<stop offset="0.8062" stop-color="#38343B"/>
</linearGradient>
<linearGradient id="paint3_linear" x1="35.4968" y1="18.511" x2="39.3029" y2="24.4402" gradientUnits="userSpaceOnUse">
<stop stop-color="#FC563A"/>
<stop offset="1" stop-color="#D43400"/>
</linearGradient>
</defs>
</svg>
